<?xml version="1.0" standalone="no"?><!DOCTYPE svg PUBLIC "-//W3C//DTD SVG 1.1//EN" "http://www.w3.org/Graphics/SVG/1.1/DTD/svg11.dtd"><svg t="1735439757653" class="icon" viewBox="0 0 1024 1024" version="1.1" xmlns="http://www.w3.org/2000/svg" p-id="3449" xmlns:xlink="http://www.w3.org/1999/xlink" width="256" height="256"><path d="M407.321022 801.167507a53.936975 53.936975 0 0 1-53.859312-51.020296c-2.782925-51.529421-15.278044-98.028003-37.135872-138.184104-15.364336-28.230512-30.262694-43.331656-32.187012-45.221457a53.82048 53.82048 0 0 1-4.111826-3.999646C218.996802 503.463539 184.091584 421.149356 184.091584 336.086764c0-174.211121 141.730716-315.941837 315.941837-315.941837s315.941837 141.730716 315.941837 315.941837c0 85.817649-35.530836 168.843743-97.579283 228.238703-0.189843 0.194158-0.379686 0.396944-0.578158 0.591102-41.717991 42.050216-37.632053 104.128865-37.308457 108.184601 3.22733 25.887677-12.659074 49.510182-37.593221 57.263541l-219.562016 68.36504c-5.250884 1.630924-10.657094 2.437756-16.033101 2.437756z m-47.594494-311.376976c7.697269 7.57646 27.846511 29.097749 48.082045 64.727821 20.796434 36.626748 35.93641 78.042716 44.820198 122.12943l121.162956-37.726975c3.960815-40.104326 18.38888-99.236094 65.40953-147.883353 1.044136-1.16926 2.148677-2.299689 3.309308-3.391286 42.309093-39.793674 65.608002-93.618469 65.608003-151.559404 0-114.734184-93.346648-208.076517-208.076517-208.076517-114.734184 0-208.076517 93.342333-208.076517 208.076517 0 57.94525 23.298909 111.770045 65.608002 151.555089 0.733484 0.694653 1.454025 1.415193 2.152992 2.148678zM407.303763 994.142879c-22.983942 0-44.285186-14.81638-51.477645-37.912502-8.853585-28.441928 7.019875-58.678734 35.461802-67.523691l219.566331-68.369354c28.428984-8.8579 58.674419 7.019875 67.519376 35.466117 8.8579 28.437613-7.019875 58.674419-35.461803 67.519376L423.349808 991.692179a54.027581 54.027581 0 0 1-16.046045 2.4507z" p-id="3450" fill="#ffffff"></path><path d="M609.624587 384.479461c-29.783772 0-53.93266-24.144573-53.93266-53.93266 0-30.793392-25.059271-55.848348-55.848349-55.848348-29.783772 0-53.93266-24.148888-53.93266-53.93266s24.148888-53.93266 53.93266-53.93266c90.266014 0 163.713668 73.439024 163.713669 163.713668 0 29.788087-24.148888 53.93266-53.93266 53.93266z" p-id="3451" fill="#ffffff"></path></svg>