<?xml version="1.0" standalone="no"?><!DOCTYPE svg PUBLIC "-//W3C//DTD SVG 1.1//EN" "http://www.w3.org/Graphics/SVG/1.1/DTD/svg11.dtd"><svg t="1735438767775" class="icon" viewBox="0 0 1024 1024" version="1.1" xmlns="http://www.w3.org/2000/svg" p-id="3188" xmlns:xlink="http://www.w3.org/1999/xlink" width="256" height="256"><path d="M256 443.733333h53.333333v21.333334H256zM322.922667 277.610667l15.082666-15.082667 39.210667 39.232-15.082667 15.082667zM501.333333 196.266667h21.333334v53.333333h-21.333334zM647.594667 302.442667l39.210666-39.210667 15.082667 15.082667-39.210667 39.210666zM714.666667 443.733333H768v21.333334h-53.333333z" fill="#ffffff" p-id="3189"></path><path d="M526.933333 838.4h-27.733333c-44.8 0-83.2-36.266667-83.2-83.2v-147.2c-53.333333-34.133333-85.333333-91.733333-85.333333-155.733333 0-100.266667 81.066667-183.466667 183.466666-183.466667 100.266667 0 183.466667 81.066667 183.466667 183.466667 0 61.866667-32 121.6-85.333333 155.733333v147.2c-4.266667 44.8-40.533333 83.2-85.333334 83.2zM512 292.266667c-89.6 0-162.133333 72.533333-162.133333 162.133333 0 57.6 32 110.933333 81.066666 138.666667l4.266667 2.133333v157.866667c0 34.133333 27.733333 61.866667 61.866667 61.866666h27.733333c34.133333 0 61.866667-27.733333 61.866667-61.866666v-160l4.266666-2.133334c49.066667-29.866667 81.066667-83.2 81.066667-138.666666 2.133333-87.466667-70.4-160-160-160z" fill="#ffffff" p-id="3190"></path><path d="M426.666667 665.6h177.066666v21.333333H426.666667zM426.666667 721.066667h172.8v21.333333H426.666667z" fill="#ffffff" p-id="3191"></path><path d="M512 992C247.466667 992 32 776.533333 32 512S247.466667 32 512 32 992 247.466667 992 512 776.533333 992 512 992z m0-938.666667C258.133333 53.333333 53.333333 258.133333 53.333333 512S258.133333 970.666667 512 970.666667 970.666667 765.866667 970.666667 512 765.866667 53.333333 512 53.333333z" fill="#ffffff" p-id="3192"></path></svg>