<?xml version="1.0" standalone="no"?><!DOCTYPE svg PUBLIC "-//W3C//DTD SVG 1.1//EN" "http://www.w3.org/Graphics/SVG/1.1/DTD/svg11.dtd"><svg t="1732965270429" class="icon" viewBox="0 0 1024 1024" version="1.1" xmlns="http://www.w3.org/2000/svg" p-id="5409" xmlns:xlink="http://www.w3.org/1999/xlink" width="256" height="256"><path d="M623.5136 358.4h160.6144C831.744 358.4 870.4 394.8544 870.4 439.808v93.184c0 44.9536-38.6048 81.408-86.272 81.408h-95.8976v-69.8368h95.8976c6.8096 0 12.3392-5.1712 12.3392-11.6224V439.8592a11.9808 11.9808 0 0 0-12.288-11.6224H486.4V358.4h62.7712l-0.3584-169.3184a12.3904 12.3904 0 0 0-12.3904-12.3392H436.8384a12.3904 12.3904 0 0 0-12.3904 12.3904v287.7952H350.208V189.1328C350.1568 141.2096 388.9664 102.4 436.8384 102.4h99.584c47.7696 0 86.5792 38.7072 86.6816 86.528L623.5136 358.4zM549.376 485.3248l74.2912 0.1536-0.5632 298.3936A86.7328 86.7328 0 0 1 536.3712 870.4H436.8384a86.7328 86.7328 0 0 1-86.6816-86.7328v-97.8944H424.448v97.8944c0 6.8608 5.5808 12.3904 12.3904 12.3904h99.5328a12.3904 12.3904 0 0 0 12.3904-12.3392l0.6144-298.3936zM486.4 544.5632V614.4H189.1328C141.312 614.4 102.4 577.9456 102.4 532.992V439.808C102.4 394.9056 141.2608 358.4 189.1328 358.4h102.0928v69.8368H189.1328c-6.8096 0-12.3904 5.1712-12.3904 11.6224v93.0816c0 6.4512 5.5808 11.6224 12.3904 11.6224H486.4z" fill="#ffffff" p-id="5410"></path></svg>